<?xml version="1.0" encoding="UTF-8"?>
<svg id="Layer_1" xmlns="http://www.w3.org/2000/svg" version="1.1" viewBox="0 0 247 247">
  <!-- Generator: Adobe Illustrator 29.5.0, SVG Export Plug-In . SVG Version: 2.1.0 Build 137)  -->
  <defs>
    <style>
      .st0 {
        display: none;
        fill: #b953d3;
      }

      .st1 {
        fill: #ca95d7;
      }

      .st2 {
        fill: #56026b;
      }
    </style>
  </defs>
  <rect class="st0" width="247" height="247"/>
  <g>
    <path class="st1" d="M175.3,65.6c-.7,7.9-2.3,15.6-4.2,23.3-.9,3.3-1.8,7.5-3,10.7-.4,1-1,2.2-2.2,2.6-1.1.3-3.5.5-4.7.7-6.4.8-13.3,1-19.7,2.1-2.3.4-3.5.6-4.1,3.1-.1.6-.6,3.4-.2,3.6.2.2,4.8,0,5.5,0,2.7.2,3.1.9,2.6,3.5-.5,2.9-2.1,8.3-3.3,11-.3.7-.9,1.8-1.6,2l-12.2,1.1c-1.8,7.7-3.6,15.5-6.5,22.9-1.4,3.6-3.2,7.7-4.9,11.2-1.5,3-2.6,5-4.4,6.3-1.5,1-3,1.4-5.9,1.7-6.6.8-7.7,0-14.7.4-3.3.2-6.6,0-9.9,0-.4,0-1.5,0-2.9-.4,0,0-1.1-.4-2-1-3-2.2-2.4-8.1-2.4-8.5.1-1.2.4-3.9,2.4-6.3,3.7-4.5,9.8-4.1,10.5-4,2.9-12.9,3.8-23.9,3.9-31.9.3-16.6-2.3-26.1-3.3-29.2-.2-.7-1.9-4.6-1.6-4.9,2.7.3,5.5.6,8.3.7l8.3-9.5h.6c0,0,8.9,1.5,8.9,1.5l8.5-6.2,10.2,3.4h1c0,0,9.8-6.7,9.8-6.7h.7c2.3,1.3,4.5,2.8,6.9,3.5l9.1-4.9,6.5,3.8,10.2-5.4h0ZM149.1,87.3c.6.7,2.2.6,3,.6,1.4,0,3.1-.4,4.5-.5,2.1-.2,4.7,0,6.8-.4,2.1-.3,1.8-3.1-.4-3.2-2.9-.1-8.1.5-11.1.8-.7,0-2,.2-2.5.6-.5.5-.8,1.6-.3,2.1h0ZM140.8,85.7c-8.3.6-17.9,2.2-26.2,3.5-5.7.9-12.2,1.8-17.8,3-1.3.3-3.1.5-2.8,2.3.1.6,1.2,1.3,1.8,1.1,11-1.9,22-3.8,33-5.2,4.1-.5,8.7-.7,12.7-1.5,1-.2,2.2-.6,2-1.9-.2-1.4-1.7-1.4-2.8-1.3h0ZM162.8,96.4c1-.9.4-2.4-1.1-2.6-1.8-.2-5.1.2-7,.4-1.5.1-3.7.3-5,.5-2.4.5-2.2,2.7,0,3.1,2.8-.3,5.7-.6,8.6-.9,1.1,0,3.9,0,4.6-.6h0ZM141.2,95.6c-14.1,2.1-28.7,3.4-42.6,6.5-.4,0-1.2.2-1.6.4-1.9.7-1.4,3.2,1.2,2.9,3.8-.4,8.1-1.6,11.9-2.2,10.5-1.7,21-3.2,31.5-4.5,2-.5,1.7-3-.4-3.1ZM129.8,108.2c-7.6.4-17,2-24.6,3.3-1.4.3-7,1.1-7.9,1.7-1.5,1-.5,2.8,1.6,2.6,4.6-.4,10.2-1.9,15-2.6,6.2-.9,12.4-1.5,18.6-2.2.8-.2,1.1-1,1-1.8-.2-1.5-2.6-1.1-3.7-1.1h0ZM137.5,117.5c-2.7,0-5.9.4-8.6.6-10.6,1-21.1,2.8-31.5,4.6-1.4,1-.9,2.7.8,2.9,9.9-1.6,19.8-3.4,29.9-4.4,3.3-.3,6.9-.3,10.1-.7,1.3-.2,2.5-1.3,1.5-2.5-.6-.8-1.3-.6-2.1-.6h0Z"/>
    <path class="st2" d="M176.8,66.8c-.7,7.9-2.3,15.6-4.2,23.3-.9,3.3-1.8,7.5-3,10.7-.4,1-1,2.2-2.2,2.6-1.1.3-3.5.5-4.7.7-6.4.8-13.3,1-19.7,2.1-2.3.4-3.5.6-4.1,3.1-.1.6-.6,3.4-.2,3.6.2.2,4.8,0,5.5,0,2.7.2,3.1.9,2.6,3.5-.5,2.9-2.1,8.3-3.3,11-.3.7-.9,1.8-1.6,2l-12.2,1.1c-1.8,7.7-3.6,15.5-6.5,22.9-1.4,3.6-3.2,7.7-4.9,11.2-1.5,3-2.6,5-4.4,6.3-1.7,1.2-3.5,1.4-5.9,1.7-3,.3-6,.4-9,.4-2.3,0-4.5,0-6.7,0-3.5-.2-1.2-.1-8.7-.6-1.1,0-2.8-.2-4.8-1-.8-.3-1.5-.7-1.9-1,1,.2,2.6.4,4.1-.2,2.9-1.2,4-4.5,4.6-6.4,7.1-23.3,7.3-42.9,7.3-42.9.2-12.8-.7-21-3.3-29.2-.2-.7-1.9-4.6-1.6-4.9,2.7.3,5.5.6,8.3.7l8.3-9.5h.6c0,0,8.9,1.5,8.9,1.5l8.5-6.2,10.2,3.4h1c0,0,9.8-6.7,9.8-6.7h.7c2.3,1.3,4.5,2.8,6.9,3.5l9.1-4.9,6.5,3.8,10.2-5.4h0ZM151.5,87.7c.6.7,2.2.6,3,.6,1.4,0,3.1-.4,4.5-.5,2.1-.2,4.7,0,6.8-.4,2.1-.3,1.8-3.1-.4-3.2-2.9-.1-8.1.5-11.1.8-.7,0-2,.2-2.5.6-.5.5-.8,1.6-.3,2.1h0ZM143.2,86.1c-8.3.6-17.9,2.2-26.2,3.5-5.7.9-12.2,1.8-17.8,3-1.3.3-3.1.5-2.8,2.3.1.6,1.2,1.3,1.8,1.1,11-1.9,22-3.8,33-5.2,4.1-.5,8.7-.7,12.7-1.5,1-.2,2.2-.6,2-1.9-.2-1.4-1.7-1.4-2.8-1.3h0ZM165.2,96.8c1-.9.4-2.4-1.1-2.6-1.8-.2-5.1.2-7,.4-1.5.1-3.7.3-5,.5-2.4.5-2.2,2.7,0,3.1,2.8-.3,5.7-.6,8.6-.9,1.1,0,3.9,0,4.6-.6h0ZM143.6,96c-14.1,2.1-28.7,3.4-42.6,6.5-.4,0-1.2.2-1.6.4-1.9.7-1.4,3.2,1.2,2.9,3.8-.4,8.1-1.6,11.9-2.2,10.5-1.7,21-3.2,31.5-4.5,2-.5,1.7-3-.4-3.1ZM132.2,108.6c-7.6.4-17,2-24.6,3.3-1.4.3-7,1.1-7.9,1.7-1.5,1-.5,2.8,1.6,2.6,4.6-.4,10.2-1.9,15-2.6,6.2-.9,12.4-1.5,18.6-2.2.8-.2,1.1-1,1-1.8-.2-1.5-2.6-1.1-3.7-1.1h0ZM139.9,117.9c-2.7,0-5.9.4-8.6.6-10.6,1-21.1,2.8-31.5,4.6-1.4,1-.9,2.7.8,2.9,9.9-1.6,19.8-3.4,29.9-4.4,3.3-.3,6.9-.3,10.1-.7,1.3-.2,2.5-1.3,1.5-2.5-.6-.8-1.3-.6-2.1-.6h0Z"/>
  </g>
</svg>