<svg width="247" height="247" viewBox="0 0 247 247" fill="none" xmlns="http://www.w3.org/2000/svg">
<rect width="247" height="247" fill="#B953D3"/>
<path d="M195.861 43.267C194.92 54.4092 192.67 65.376 189.864 76.1699C188.646 80.8604 187.248 86.7563 185.667 91.2393C185.154 92.6966 184.205 94.396 182.622 94.8628C181.086 95.3173 177.724 95.6112 175.946 95.8434C166.836 97.0364 157.092 97.2859 148.096 98.8692C144.814 99.4471 143.114 99.7164 142.336 103.236C142.163 104.019 141.536 108.05 142.005 108.371C142.326 108.591 148.788 108.384 149.806 108.465C153.674 108.769 154.128 109.767 153.506 113.417C152.804 117.535 150.569 125.212 148.805 128.971C148.353 129.937 147.565 131.584 146.518 131.871L129.196 133.444C126.659 144.374 124.068 155.38 119.975 165.843C117.982 170.941 115.473 176.738 113.045 181.636C110.943 185.88 109.419 188.76 106.84 190.568C104.745 192.038 102.614 192.482 98.4295 192.954C89.0312 194.016 87.5393 192.939 77.6321 193.537C72.9663 193.818 68.2807 193.473 63.6074 193.608C63.0492 193.623 61.4289 193.675 59.4998 193.013C59.4998 193.013 57.8993 192.462 56.6544 191.544C52.4159 188.414 53.2532 180.132 53.3199 179.49C53.4903 177.82 53.93 174.029 56.7236 170.598C61.9204 164.218 70.6148 164.813 71.5584 164.892C75.7179 146.582 76.8714 131.036 77.0467 119.694C77.4098 96.2757 73.8061 82.7697 72.4303 78.3854C72.1141 77.3752 69.7256 71.8647 70.1381 71.4176C74.0111 71.8622 77.926 72.2598 81.8188 72.408L93.6081 58.9416L94.4256 58.8329L106.998 60.9966L118.973 52.1886L133.353 56.9804L134.719 57.0891L148.573 47.4487L149.603 47.6512C152.831 49.2394 155.988 51.3661 159.404 52.3961L172.27 45.49L181.412 50.9018L195.861 43.2596V43.267ZM158.883 74.0704C159.698 75.0707 161.938 74.9447 163.144 74.8904C165.186 74.799 167.481 74.2902 169.558 74.142C172.576 73.9271 176.272 74.1148 179.176 73.6332C182.081 73.1515 181.755 69.1946 178.658 69.039C174.54 68.8315 167.175 69.696 162.889 70.1875C161.857 70.3061 160.029 70.4049 159.29 71.0347C158.515 71.6967 158.228 73.2627 158.883 74.0679V74.0704ZM147.153 71.7461C135.388 72.5612 121.84 74.8657 110.068 76.6515C101.952 77.884 92.8671 79.1314 84.9063 80.8826C83.0217 81.2976 80.4948 81.5298 81.0111 84.1405C81.1914 85.0569 82.6561 85.9758 83.5848 85.7584C99.1112 83.0315 114.675 80.4479 130.31 78.3706C136.109 77.6 142.573 77.3876 148.249 76.3032C149.689 76.0291 151.344 75.4165 151.105 73.5813C150.848 71.5979 148.654 71.6423 147.15 71.7461H147.153ZM178.248 86.9069C179.641 85.6324 178.781 83.4564 176.731 83.2686C174.194 83.0365 169.536 83.5403 166.841 83.7775C164.771 83.9602 161.634 84.1504 159.698 84.5382C156.289 85.2199 156.546 88.3297 159.681 88.9793C163.704 88.5199 167.75 88.1098 171.781 87.7295C173.268 87.5887 177.23 87.8381 178.245 86.9069H178.248ZM147.644 85.8152C127.734 88.799 107.023 90.6663 87.3713 94.9567C86.7415 95.095 85.6843 95.2605 85.1557 95.4581C82.419 96.4856 83.2094 99.9313 86.7859 99.5558C92.1261 98.9951 98.2616 97.3402 103.678 96.4436C118.481 93.9934 133.35 91.9186 148.257 90.1402C151.139 89.3745 150.687 85.8399 147.644 85.8152ZM131.592 103.607C120.783 104.106 107.531 106.405 96.7573 108.292C94.7295 108.648 86.8082 109.88 85.5756 110.696C83.444 112.103 84.8865 114.645 87.7986 114.398C94.354 113.845 102.293 111.713 109.075 110.73C117.836 109.458 126.62 108.658 135.41 107.672C136.584 107.349 136.989 106.311 136.818 105.16C136.502 103.004 133.16 103.535 131.592 103.609V103.607ZM142.457 116.7C138.584 116.836 134.173 117.253 130.285 117.616C115.354 119.007 100.433 121.524 85.7214 124.182C83.6713 125.57 84.4666 127.948 86.8032 128.242C100.84 125.935 114.88 123.483 129.05 122.062C133.691 121.598 138.792 121.66 143.351 121.05C145.15 120.81 146.827 119.224 145.476 117.486C144.594 116.352 143.682 116.656 142.457 116.698V116.7Z" fill="#CA95D7"/>
<path d="M198 45.0676C197.059 56.2098 194.809 67.1766 192.003 77.9705C190.785 82.661 189.387 88.5569 187.806 93.04C187.293 94.4973 186.344 96.1966 184.761 96.6635C183.225 97.1179 179.863 97.4119 178.085 97.644C168.975 98.8371 159.231 99.0865 150.235 100.67C146.953 101.248 145.253 101.517 144.475 105.037C144.302 105.82 143.675 109.851 144.144 110.172C144.465 110.392 150.927 110.184 151.945 110.266C155.813 110.57 156.267 111.567 155.645 115.218C154.943 119.336 152.708 127.012 150.944 130.772C150.492 131.737 149.704 133.385 148.657 133.671L131.335 135.245C128.798 146.175 126.207 157.181 122.114 167.644C120.121 172.742 117.612 178.539 115.184 183.437C113.082 187.68 111.558 190.561 108.979 192.369C106.536 194.083 104.078 194.404 100.569 194.755C96.2929 195.177 92.1261 195.367 87.8851 195.291C84.6765 195.278 81.5421 195.291 78.3657 195.15C73.3466 194.923 76.6194 194.992 66.0725 194.349C64.5362 194.256 62.1254 194.115 59.28 192.932C58.0895 192.438 57.1583 191.899 56.5358 191.504C57.9808 191.852 60.1692 192.126 62.3551 191.23C66.4356 189.553 68.0386 184.8 68.8315 182.192C78.8572 149.242 79.1882 121.497 79.1882 121.497C79.4031 103.365 78.2101 91.7827 74.5718 80.1885C74.2556 79.1783 71.8671 73.6677 72.2796 73.2207C76.1526 73.6653 80.0675 74.063 83.9602 74.2112L95.7495 60.7447L96.5671 60.636L109.139 62.7997L121.114 53.9917L135.494 58.7835L136.86 58.8922L150.714 49.2518L151.744 49.4543C154.973 51.0425 158.129 53.1692 161.545 54.1992L174.412 47.2931L183.553 52.7049L198.003 45.0627L198 45.0676ZM162.257 74.636C163.072 75.6363 165.312 75.5104 166.518 75.456C168.56 75.3646 170.855 74.8558 172.932 74.7076C175.95 74.4927 179.646 74.6804 182.55 74.1988C185.455 73.7171 185.129 69.7602 182.032 69.6046C177.914 69.3971 170.549 70.2616 166.263 70.7532C165.231 70.8717 163.403 70.9705 162.664 71.6004C161.889 72.2623 161.602 73.8283 162.257 74.6335V74.636ZM150.527 72.3092C138.762 73.1243 125.214 75.4289 113.442 77.2147C105.326 78.4472 96.2411 79.6945 88.2803 81.4458C86.3957 81.8607 83.8689 82.0929 84.3851 84.7037C84.5654 85.6201 86.0301 86.5389 86.9588 86.3216C102.485 83.5947 118.049 81.0111 133.684 78.9338C139.483 78.1632 145.947 77.9507 151.623 76.8664C153.063 76.5922 154.718 75.9797 154.479 74.1445C154.222 72.161 152.028 72.2055 150.524 72.3092H150.527ZM181.622 87.4701C183.015 86.1956 182.155 84.0195 180.105 83.8318C177.568 83.5996 172.91 84.1035 170.215 84.3406C168.145 84.5234 165.008 84.7136 163.072 85.1014C159.663 85.7831 159.92 88.8928 163.055 89.5424C167.078 89.083 171.124 88.673 175.155 88.2926C176.642 88.1518 180.604 88.4013 181.619 87.4701H181.622ZM151.018 86.3784C131.108 89.3621 110.397 91.2295 90.7453 95.5198C90.1155 95.6582 89.0583 95.8237 88.5297 96.0213C85.793 97.0488 86.5834 100.494 90.1599 100.119C95.5001 99.5583 101.636 97.9034 107.052 97.0068C121.855 94.5565 136.724 92.4817 151.631 90.7033C154.513 89.9376 154.061 86.4031 151.018 86.3784ZM134.966 104.172C124.157 104.671 110.905 106.971 100.131 108.858C98.1035 109.214 90.1822 110.446 88.9496 111.261C86.818 112.669 88.2605 115.211 91.1726 114.964C97.728 114.41 105.667 112.279 112.449 111.296C121.21 110.024 129.994 109.223 138.784 108.238C139.958 107.914 140.363 106.877 140.192 105.726C139.876 103.57 136.534 104.101 134.966 104.175V104.172ZM145.831 117.263C141.958 117.399 137.547 117.817 133.659 118.18C118.728 119.57 103.807 122.087 89.0954 124.745C87.0453 126.133 87.8406 128.512 90.1772 128.806C104.214 126.499 118.254 124.046 132.424 122.626C137.065 122.161 142.166 122.223 146.725 121.613C148.524 121.373 150.201 119.788 148.85 118.049C147.968 116.915 147.056 117.219 145.831 117.261V117.263Z" fill="#56026B"/>
</svg>
